<?xml version="1.0" standalone="no"?>
<!DOCTYPE svg PUBLIC "-//W3C//DTD SVG 20010904//EN"
 "http://www.w3.org/TR/2001/REC-SVG-20010904/DTD/svg10.dtd">
<svg version="1.0" xmlns="http://www.w3.org/2000/svg"
 width="817.000000pt" height="1280.000000pt" viewBox="0 0 817.000000 1280.000000"
 preserveAspectRatio="xMidYMid meet">
<metadata>
Created by potrace 1.15, written by Peter Selinger 2001-2017
</metadata>
<g transform="translate(0.000000,1280.000000) scale(0.100000,-0.100000)"
fill="#000000" stroke="none">
<path d="M6620 12781 c-359 -98 -717 -600 -954 -1338 -170 -531 -261 -1116
-273 -1743 -8 -416 13 -603 93 -852 115 -356 300 -596 698 -907 186 -145 255
-211 284 -273 21 -43 22 -57 22 -364 0 -723 -41 -1680 -110 -2554 -29 -357
-61 -698 -135 -1415 -104 -1008 -119 -1175 -137 -1593 -12 -295 -2 -598 28
-831 19 -145 67 -388 95 -472 90 -274 276 -431 514 -432 147 0 261 48 370 158
109 109 161 240 204 515 41 263 46 343 45 785 -1 498 -6 582 -114 1770 -124
1367 -158 1843 -195 2710 -17 404 -40 1511 -33 1624 8 139 69 214 301 372 240
163 374 273 471 389 193 230 299 483 353 836 36 235 19 871 -32 1271 -149
1151 -568 2031 -1088 2288 -148 73 -278 91 -407 56z"/>
<path d="M2750 12747 c-69 -155 -152 -890 -205 -1812 -32 -563 -39 -801 -39
-1325 -1 -466 2 -563 17 -667 21 -147 54 -258 113 -376 58 -115 95 -169 261
-378 150 -189 210 -277 253 -374 74 -164 91 -316 71 -596 -7 -90 -46 -515 -87
-944 -151 -1583 -188 -2028 -233 -2780 -41 -678 -46 -830 -46 -1505 0 -731 8
-889 60 -1256 47 -327 99 -468 215 -584 36 -36 88 -78 116 -92 295 -157 652
22 762 382 24 78 66 324 88 510 21 184 29 691 15 964 -17 318 -34 520 -111
1296 -158 1587 -203 2272 -231 3470 -14 602 -9 909 15 995 38 135 93 226 256
420 175 210 286 398 358 610 70 203 87 455 79 1165 -6 502 -10 629 -42 1145
-56 899 -155 1779 -200 1767 -33 -9 -51 -255 -80 -1122 -35 -1048 -60 -1434
-106 -1664 -24 -121 -42 -158 -72 -154 -76 11 -113 387 -137 1388 -30 1273
-42 1507 -84 1548 -44 44 -64 -206 -91 -1123 -32 -1072 -56 -1447 -110 -1680
-40 -178 -110 -179 -150 -3 -47 206 -63 544 -75 1572 -12 979 -23 1218 -60
1241 -44 27 -70 -253 -110 -1170 -35 -815 -51 -1083 -76 -1335 -29 -301 -63
-440 -105 -440 -50 0 -82 135 -109 460 -19 229 -30 618 -40 1407 -12 874 -22
1083 -52 1083 -5 0 -18 -19 -28 -43z"/>
<path d="M604 12690 c-94 -22 -172 -140 -237 -360 -85 -282 -133 -672 -173
-1392 -21 -366 -30 -2277 -15 -3238 12 -821 16 -860 131 -1291 74 -278 80
-325 80 -603 0 -618 -47 -1445 -120 -2131 -31 -285 -62 -531 -134 -1055 -116
-847 -130 -981 -130 -1320 -1 -294 12 -415 63 -626 54 -218 104 -320 203 -409
239 -215 667 -165 842 99 65 97 114 291 143 556 27 255 8 608 -62 1145 -13
105 -40 309 -59 455 -90 686 -147 1302 -181 1960 -20 406 -38 1099 -33 1340
l4 205 36 105 c20 58 99 238 176 400 192 403 262 584 326 835 85 336 100 603
76 1340 -58 1796 -279 3196 -591 3741 -101 176 -235 271 -345 244z"/>
</g>
</svg>
