<?xml version="1.0" standalone="no"?>
<!DOCTYPE svg PUBLIC "-//W3C//DTD SVG 20010904//EN"
 "http://www.w3.org/TR/2001/REC-SVG-20010904/DTD/svg10.dtd">
<svg version="1.0" xmlns="http://www.w3.org/2000/svg"
 width="1176.000000pt" height="1280.000000pt" viewBox="0 0 1176.000000 1280.000000"
 preserveAspectRatio="xMidYMid meet">
<metadata>
Created by potrace 1.15, written by Peter Selinger 2001-2017
</metadata>
<g transform="translate(0.000000,1280.000000) scale(0.100000,-0.100000)"
fill="#000000" stroke="none">
<path d="M8004 12450 c-18 -6 -55 -31 -83 -56 -55 -50 -238 -286 -286 -369
-16 -27 -60 -96 -98 -153 -39 -58 -88 -148 -112 -207 -47 -112 -162 -335 -179
-347 -16 -11 -76 -10 -116 2 -75 23 -322 31 -472 16 -79 -8 -183 -17 -233 -21
-91 -6 -331 -43 -460 -71 -114 -25 -213 -42 -340 -58 -149 -19 -218 -37 -295
-76 -77 -39 -135 -97 -168 -169 -23 -50 -26 -69 -27 -171 l0 -115 74 -235 c40
-129 93 -277 118 -328 32 -69 43 -104 41 -131 l-3 -36 -130 -17 c-521 -70
-975 -207 -1279 -387 -164 -97 -351 -257 -425 -365 -43 -63 -107 -193 -125
-256 -38 -136 -37 -309 4 -437 152 -480 696 -946 1500 -1284 270 -113 697
-253 929 -305 664 -147 1030 -189 1626 -188 394 1 536 10 842 54 471 68 954
230 1213 408 289 199 437 405 476 664 44 292 -86 603 -376 898 -102 104 -250
228 -338 284 -62 39 -69 62 -44 133 11 32 33 103 49 158 27 95 28 110 28 305
0 184 -2 212 -22 275 -28 88 -63 144 -154 242 -125 135 -129 142 -129 245 0
49 -5 98 -10 109 -8 14 -6 27 6 51 14 28 16 52 10 172 -9 183 -29 292 -70 386
-19 42 -49 133 -67 201 -30 114 -124 334 -163 379 -7 8 -31 47 -52 85 -68 124
-171 274 -299 436 -33 42 -84 110 -112 152 -29 42 -71 89 -93 103 -44 29 -107
39 -156 24z m314 -613 c6 -7 20 -39 33 -71 32 -88 50 -102 139 -109 128 -9
132 -20 40 -92 -75 -58 -84 -79 -65 -157 18 -76 19 -118 4 -118 -7 0 -40 18
-75 40 -81 51 -107 51 -195 -1 -89 -53 -99 -47 -76 50 27 112 26 116 -55 192
-67 63 -70 67 -50 78 11 6 48 11 81 11 91 0 108 12 152 107 38 84 48 94 67 70z
m-360 -687 c46 -118 102 -263 156 -405 60 -156 73 -181 105 -194 14 -5 152
-20 306 -31 374 -28 418 -33 422 -46 2 -6 -54 -58 -123 -115 -70 -57 -189
-154 -265 -216 -144 -118 -179 -154 -179 -184 0 -11 34 -156 75 -324 88 -357
93 -385 74 -385 -8 0 -48 22 -89 49 -435 281 -517 331 -543 331 -27 0 -151
-68 -302 -165 -126 -82 -330 -205 -337 -205 -5 0 -11 7 -14 15 -6 15 4 54 108
445 27 102 52 206 55 232 5 45 4 49 -33 85 -22 21 -96 85 -164 143 -159 134
-159 134 -195 165 -16 14 -58 49 -92 77 -65 53 -76 73 -45 82 9 3 103 10 207
16 105 6 260 15 345 20 l155 9 25 30 c14 17 42 74 64 128 37 94 90 224 178
436 30 72 45 97 56 95 10 -2 30 -37 50 -88z m-1713 -774 c15 -41 35 -82 45
-91 12 -11 48 -19 104 -24 48 -5 89 -11 92 -14 13 -12 -10 -44 -59 -82 -78
-61 -85 -80 -64 -159 19 -72 22 -116 7 -116 -5 0 -42 20 -82 45 -40 25 -82 45
-93 45 -11 0 -53 -20 -94 -45 -41 -24 -78 -42 -82 -39 -14 8 -11 57 6 104 29
82 23 101 -55 171 -39 34 -69 67 -67 73 2 6 41 14 87 18 105 9 123 21 162 116
40 97 57 97 93 -2z m-695 -1191 c49 -125 96 -235 105 -246 23 -24 36 -26 295
-44 220 -15 277 -25 265 -45 -3 -5 -89 -78 -190 -161 -102 -82 -194 -162 -205
-176 -25 -32 -25 -50 -1 -149 11 -44 36 -144 55 -224 40 -161 43 -190 21 -190
-8 0 -90 49 -182 108 -226 146 -255 162 -288 162 -18 0 -98 -43 -233 -127
-113 -71 -214 -131 -224 -135 -38 -15 -35 23 16 207 46 165 76 291 76 314 0
34 -13 47 -228 230 -100 85 -182 157 -182 162 0 16 19 18 211 28 290 16 316
19 345 44 24 21 41 59 144 315 71 175 78 188 96 170 9 -8 55 -117 104 -243z
m1807 -297 c10 -14 13 -21 89 -213 26 -66 52 -126 58 -134 18 -23 49 -29 212
-41 188 -14 204 -16 204 -34 0 -7 -57 -60 -126 -117 -156 -128 -174 -147 -174
-181 0 -23 41 -202 70 -309 14 -50 13 -69 -5 -69 -8 0 -66 33 -128 73 -155
101 -201 127 -223 127 -18 0 -124 -62 -271 -157 -50 -32 -93 -43 -93 -23 0 6
20 91 45 189 35 135 43 184 36 203 -5 13 -49 58 -97 99 -49 41 -102 85 -118
99 -50 42 -76 69 -76 78 0 14 46 20 200 27 159 8 203 17 223 48 8 13 39 82 67
153 83 206 86 210 107 182z m2045 -343 c40 -99 51 -107 154 -120 49 -5 89 -15
91 -22 2 -6 -13 -26 -34 -45 -113 -99 -117 -107 -88 -202 19 -63 19 -96 0 -96
-8 0 -42 18 -76 40 -85 55 -115 53 -215 -15 -20 -14 -43 -25 -50 -25 -19 0
-18 56 1 110 26 73 21 93 -37 147 -28 26 -59 56 -70 66 -36 35 -14 47 89 47
81 0 109 23 147 120 20 50 33 70 44 68 9 -2 28 -34 44 -73z m-3107 -994 c8
-16 24 -55 36 -85 25 -69 53 -86 142 -86 71 0 104 -15 84 -40 -7 -9 -34 -33
-60 -54 -76 -62 -82 -80 -57 -176 19 -76 20 -100 1 -100 -4 0 -39 20 -77 45
-38 24 -79 45 -92 45 -13 0 -54 -18 -91 -40 -37 -22 -75 -40 -85 -40 -20 0
-20 -3 4 116 7 33 10 72 6 85 -4 13 -34 47 -66 74 -33 28 -59 57 -58 65 3 11
24 17 86 21 98 7 121 23 152 105 22 60 41 94 52 94 4 0 14 -13 23 -29z m1945
-61 c38 -93 59 -110 142 -110 100 0 122 -20 71 -63 -95 -79 -105 -92 -105
-134 0 -22 8 -66 17 -97 15 -52 14 -76 -4 -76 -4 0 -39 20 -77 45 -38 24 -79
45 -92 45 -13 0 -54 -18 -91 -40 -104 -62 -114 -55 -86 50 29 107 20 129 -82
207 -18 14 -33 33 -33 43 0 15 12 18 85 22 102 5 122 19 156 110 23 61 44 92
59 83 4 -2 22 -41 40 -85z"/>
<path d="M2845 8503 c-503 -90 -842 -171 -1190 -283 -479 -156 -837 -345
-1050 -555 -123 -121 -185 -236 -251 -465 -61 -212 -68 -276 -69 -575 0 -437
26 -542 177 -715 116 -133 307 -273 539 -394 366 -192 826 -354 1394 -492 127
-30 280 -73 340 -95 61 -22 182 -64 270 -93 1016 -338 2716 -464 4202 -311
234 24 600 80 793 121 197 42 309 62 485 84 94 11 208 27 255 35 47 8 144 24
215 36 931 150 1704 422 2057 723 132 112 249 255 301 368 55 116 87 351 87
633 0 372 -43 570 -160 731 -135 186 -388 376 -719 538 -136 67 -150 65 -168
-15 -51 -218 -135 -369 -297 -534 -610 -622 -2037 -898 -3586 -696 -676 89
-1309 259 -1875 503 -838 361 -1409 850 -1580 1353 -39 116 -46 120 -170 98z
m-366 -676 c10 -12 113 -271 161 -402 46 -128 102 -251 120 -266 22 -19 49
-22 375 -44 323 -22 359 -27 363 -45 2 -10 -81 -84 -225 -200 -295 -240 -333
-275 -333 -312 0 -26 27 -142 121 -523 44 -179 44 -185 26 -185 -7 0 -101 56
-208 125 -347 222 -402 255 -429 255 -14 0 -70 -27 -125 -61 -153 -94 -249
-153 -380 -235 -66 -40 -126 -74 -132 -74 -7 0 -13 11 -13 23 0 22 105 438
147 582 10 33 18 78 18 101 0 35 -6 46 -40 76 -64 56 -249 215 -382 327 -68
57 -123 109 -123 117 0 20 17 22 335 39 160 8 311 18 338 21 82 10 64 -21 274
494 41 102 77 188 79 192 8 12 20 10 33 -5z m-1578 -645 c34 -107 73 -142 157
-142 58 0 102 -11 102 -25 0 -7 -27 -35 -59 -61 -86 -69 -89 -77 -67 -181 11
-54 14 -89 8 -95 -6 -6 -36 7 -83 36 -40 25 -82 46 -92 46 -21 0 -91 -34 -126
-61 -25 -20 -56 -25 -65 -10 -3 5 3 44 14 88 26 99 21 113 -58 178 -34 28 -60
57 -59 65 2 11 23 17 87 23 46 4 94 14 106 22 12 8 32 40 44 72 30 82 48 107
65 93 8 -6 19 -28 26 -48z m9646 -412 c36 -91 75 -175 87 -188 20 -20 40 -24
211 -40 152 -14 190 -20 193 -32 1 -9 -46 -55 -119 -115 -149 -122 -167 -139
-175 -169 -3 -12 13 -98 35 -190 43 -175 48 -206 30 -206 -5 0 -41 20 -80 45
-251 163 -243 159 -283 152 -27 -4 -122 -59 -275 -158 -47 -31 -66 -35 -76
-19 -3 5 14 87 39 181 25 94 46 180 46 191 0 30 -23 55 -168 177 -72 61 -132
116 -132 121 0 5 8 11 18 14 17 5 282 26 338 26 42 0 77 35 102 103 62 165
115 278 129 275 10 -2 41 -67 80 -168z m-5081 -472 c35 -92 62 -118 123 -118
79 0 121 -11 121 -30 0 -9 -25 -37 -56 -61 -83 -66 -88 -80 -65 -181 27 -116
23 -119 -75 -56 -37 23 -79 41 -94 41 -16 0 -60 -19 -100 -43 -90 -55 -100
-48 -77 49 28 112 26 117 -53 192 -82 76 -80 89 16 89 104 0 120 10 165 106
22 49 44 84 53 84 9 0 25 -28 42 -72z m3559 -12 c15 -41 35 -82 45 -91 11 -10
50 -20 97 -26 43 -5 84 -12 91 -14 25 -9 11 -36 -40 -76 -29 -23 -61 -54 -72
-70 -18 -29 -18 -31 3 -114 11 -46 21 -87 21 -90 0 -14 -38 -1 -97 35 -37 22
-80 40 -95 40 -16 0 -59 -18 -95 -40 -37 -22 -73 -40 -80 -40 -17 0 -16 33 2
94 28 93 23 113 -50 181 -36 33 -65 66 -65 72 0 15 23 20 113 26 82 6 94 15
126 99 44 113 59 116 96 14z m-1743 -126 c113 -298 162 -412 182 -425 15 -10
103 -21 275 -35 139 -11 257 -23 262 -26 5 -3 9 -9 9 -14 0 -8 -148 -135 -285
-245 -98 -79 -125 -110 -125 -144 0 -17 25 -132 55 -255 57 -231 63 -266 44
-266 -6 0 -102 58 -213 129 -228 146 -238 151 -263 151 -10 0 -117 -61 -238
-135 -120 -74 -225 -135 -233 -135 -21 0 -12 52 48 275 63 234 67 257 47 285
-8 11 -54 55 -103 96 -49 42 -100 86 -114 98 -14 12 -56 48 -95 80 -72 61 -91
83 -81 94 4 3 113 12 244 19 130 7 254 18 275 24 43 12 51 25 143 252 101 248
106 258 122 255 10 -2 28 -34 44 -78z m-3550 -662 c36 -90 57 -105 161 -111
90 -6 103 -19 57 -59 -123 -108 -123 -107 -95 -223 25 -103 20 -106 -75 -44
-83 53 -107 53 -198 -1 -94 -55 -101 -49 -74 60 24 97 18 123 -36 166 -77 61
-85 71 -79 87 5 14 20 17 72 17 94 0 131 18 156 77 44 105 49 114 65 111 10
-2 29 -34 46 -80z"/>
<path d="M777 5263 c-16 -15 -4 -61 54 -205 34 -84 74 -188 90 -231 16 -44 66
-174 113 -290 77 -197 120 -307 198 -512 17 -44 52 -132 79 -195 26 -63 63
-160 82 -215 19 -55 57 -156 85 -225 109 -275 177 -449 208 -535 18 -49 58
-153 89 -230 30 -77 80 -203 110 -280 30 -77 79 -203 109 -280 30 -77 68 -176
84 -220 17 -44 69 -179 116 -300 202 -512 256 -653 276 -708 23 -62 54 -91 92
-85 19 2 23 9 22 38 -1 31 -94 286 -228 625 -46 116 -136 358 -191 510 -39
107 -126 336 -202 530 -31 77 -64 166 -74 199 -10 32 -48 135 -85 230 -95 244
-110 282 -175 461 -32 88 -103 279 -159 425 -56 146 -121 319 -145 385 -24 66
-67 179 -95 250 -29 72 -62 162 -75 200 -13 39 -33 93 -45 120 -12 28 -51 131
-86 230 -84 234 -99 265 -149 292 -39 22 -85 30 -98 16z"/>
<path d="M10790 5163 c-67 -34 -69 -39 -157 -291 -145 -416 -172 -491 -207
-587 -21 -55 -73 -201 -117 -325 -44 -124 -100 -279 -124 -345 -45 -125 -112
-313 -195 -545 -26 -74 -58 -162 -70 -195 -70 -192 -142 -396 -220 -620 -27
-77 -63 -178 -80 -225 -17 -47 -56 -155 -87 -240 -31 -85 -80 -222 -110 -305
-30 -82 -60 -168 -67 -190 -28 -83 -128 -363 -157 -438 -36 -91 -35 -121 2
-125 38 -4 75 31 99 96 45 117 82 219 109 297 16 44 51 141 78 215 125 335
146 390 175 465 17 44 50 134 74 200 92 255 114 316 189 515 43 113 84 223 92
245 87 242 168 463 290 790 134 358 207 554 314 850 22 61 48 133 59 160 90
228 210 573 208 594 -4 36 -32 37 -98 4z"/>
<path d="M1124 5106 c-3 -14 -3 -30 1 -37 4 -6 31 -80 60 -163 29 -83 96 -268
150 -411 53 -143 121 -327 150 -410 52 -147 117 -325 218 -595 27 -74 65 -178
82 -230 28 -80 163 -449 250 -680 60 -159 205 -561 205 -568 0 -5 18 -55 41
-113 38 -95 84 -220 189 -509 238 -655 241 -663 257 -688 28 -45 93 -46 93 -2
0 11 -38 125 -83 252 -46 128 -112 312 -146 408 -34 96 -84 236 -110 310 -49
134 -121 339 -219 620 -28 80 -74 210 -103 290 -83 232 -122 341 -202 570 -41
118 -80 229 -87 245 -22 56 -122 340 -135 385 -7 25 -36 108 -65 185 -60 163
-172 480 -240 680 -73 212 -149 417 -162 433 -18 21 -84 52 -112 52 -19 0 -27
-7 -32 -24z"/>
<path d="M10464 5040 c-53 -23 -69 -46 -100 -150 -28 -93 -47 -150 -124 -370
-83 -238 -239 -700 -265 -780 -13 -41 -55 -169 -95 -285 -39 -115 -148 -439
-242 -720 -94 -280 -242 -721 -330 -980 -87 -259 -185 -551 -218 -650 -32 -99
-78 -235 -101 -302 -35 -101 -40 -125 -29 -138 37 -45 101 8 134 113 23 70 65
193 155 447 36 101 103 295 249 720 55 160 121 349 147 420 26 72 55 153 64
180 10 28 39 111 66 185 26 74 67 194 90 265 44 132 183 533 235 680 71 200
262 748 393 1130 79 230 82 256 34 254 -12 0 -41 -9 -63 -19z"/>
<path d="M1469 4994 c-10 -12 -10 -24 -2 -52 20 -66 506 -1486 605 -1767 19
-55 47 -136 61 -180 14 -44 58 -172 97 -285 40 -113 98 -284 131 -380 32 -96
72 -215 90 -265 17 -49 51 -146 75 -215 23 -69 75 -217 114 -330 39 -113 87
-254 106 -315 19 -60 40 -121 46 -135 6 -14 42 -117 80 -230 40 -117 79 -215
91 -228 30 -32 71 -27 75 9 2 15 -61 217 -138 450 -78 233 -152 458 -165 499
-13 41 -57 174 -98 295 -41 121 -132 396 -202 610 -126 387 -199 604 -234 700
-11 28 -28 82 -39 120 -11 39 -74 230 -140 425 -66 195 -179 537 -252 760 -73
223 -141 424 -151 446 -13 31 -28 46 -61 63 -53 25 -71 26 -89 5z"/>
<path d="M10135 4922 c-16 -10 -35 -25 -41 -33 -11 -14 -65 -173 -194 -579
-35 -107 -73 -226 -85 -265 -13 -38 -37 -117 -55 -175 -40 -134 -208 -669
-244 -780 -8 -25 -33 -106 -56 -180 -23 -74 -71 -225 -105 -335 -35 -110 -89
-281 -120 -380 -31 -99 -71 -227 -90 -285 -19 -58 -52 -163 -74 -235 -50 -162
-203 -652 -277 -885 -59 -182 -60 -202 -15 -208 35 -6 73 45 104 138 15 47 86
261 156 475 71 215 150 458 176 540 25 83 68 215 95 295 135 408 310 942 410
1250 108 336 138 427 369 1130 177 541 173 523 111 528 -21 1 -47 -5 -65 -16z"/>
<path d="M1802 4888 c-19 -19 -15 -45 37 -203 27 -82 69 -215 95 -295 25 -80
61 -192 80 -250 102 -311 279 -863 442 -1380 36 -113 93 -293 128 -400 108
-330 171 -526 246 -760 39 -124 102 -319 139 -435 38 -115 89 -277 115 -360
74 -234 85 -261 112 -276 36 -19 59 -1 58 44 -1 19 -34 138 -73 264 -40 125
-81 255 -91 288 -10 33 -41 132 -69 220 -27 88 -77 250 -111 360 -34 110 -90
290 -126 400 -35 110 -64 207 -64 215 0 9 -13 54 -29 100 -16 47 -66 204 -110
350 -45 146 -97 315 -116 375 -18 61 -75 243 -125 405 -50 162 -106 342 -125
400 -18 58 -47 152 -64 210 -18 58 -57 184 -88 280 -30 96 -68 218 -83 271
-39 135 -50 154 -107 173 -56 19 -56 19 -71 4z"/>
<path d="M9824 4821 c-45 -20 -49 -28 -88 -161 -14 -47 -55 -182 -90 -300 -35
-118 -72 -244 -81 -280 -9 -36 -38 -137 -65 -225 -26 -88 -58 -196 -70 -240
-20 -74 -40 -139 -135 -455 -38 -124 -92 -311 -157 -535 -22 -77 -57 -196 -78
-265 -35 -114 -97 -329 -156 -535 -12 -44 -39 -136 -59 -205 -20 -69 -63 -213
-95 -320 -31 -107 -78 -267 -104 -355 -128 -434 -125 -419 -88 -428 25 -5 66
18 80 45 11 21 57 166 168 528 25 80 53 172 64 205 25 84 71 233 125 415 58
193 109 360 260 850 32 102 62 201 67 220 5 19 34 114 65 210 31 96 61 198 68
225 7 28 34 118 60 200 50 161 245 796 301 983 19 62 54 178 79 259 25 80 43
154 40 164 -8 25 -57 25 -111 0z"/>
<path d="M2120 4785 c-17 -20 -10 -57 39 -212 22 -70 81 -267 131 -438 89
-300 190 -638 290 -970 26 -88 51 -176 55 -195 4 -19 18 -66 30 -105 41 -122
102 -323 176 -575 39 -135 102 -346 139 -470 38 -124 79 -263 92 -310 14 -47
54 -182 90 -300 36 -118 96 -318 133 -445 37 -126 74 -242 82 -257 27 -55 93
-62 93 -10 0 14 -13 71 -29 127 -119 406 -153 526 -186 645 -20 74 -46 164
-57 200 -36 119 -150 514 -163 565 -7 28 -34 122 -60 210 -74 250 -115 393
-140 485 -25 95 -109 389 -124 435 -21 62 -104 354 -131 455 -15 58 -67 240
-115 405 -48 165 -114 392 -147 505 -32 113 -66 215 -73 227 -8 12 -32 27 -52
32 -50 14 -58 14 -73 -4z"/>
<path d="M9523 4736 c-52 -23 -69 -62 -108 -244 -9 -40 -31 -123 -50 -185 -33
-111 -60 -211 -110 -402 -14 -55 -32 -122 -40 -150 -15 -50 -101 -364 -131
-480 -9 -33 -22 -80 -29 -105 -29 -99 -108 -388 -170 -620 -97 -364 -114 -424
-150 -555 -19 -66 -45 -165 -59 -220 -13 -55 -36 -140 -51 -190 -36 -125 -65
-233 -134 -490 -21 -79 -83 -304 -137 -499 -20 -72 -25 -103 -17 -115 14 -23
40 -25 69 -6 26 17 38 40 59 115 12 42 54 189 140 485 19 66 62 219 95 340 78
280 138 492 206 725 49 167 113 397 134 475 4 17 31 111 60 210 29 99 60 212
70 250 10 39 33 122 53 185 19 63 47 160 61 215 15 55 38 138 52 185 13 47 29
101 34 120 78 272 206 718 230 800 17 58 29 119 28 135 -3 27 -7 30 -38 32
-19 2 -49 -4 -67 -11z"/>
<path d="M2425 4689 c-6 -19 27 -176 59 -279 8 -25 29 -97 47 -160 17 -63 47
-166 65 -229 19 -62 34 -121 34 -130 0 -9 13 -59 29 -111 16 -52 44 -149 61
-215 37 -141 68 -252 151 -545 34 -118 72 -258 85 -310 13 -52 32 -124 42
-160 11 -36 38 -135 61 -220 24 -85 55 -198 71 -250 15 -52 40 -142 55 -200
32 -125 128 -466 149 -530 8 -25 18 -61 21 -80 4 -19 17 -71 30 -115 13 -44
53 -190 90 -325 115 -419 115 -420 165 -420 23 0 31 5 36 23 5 22 -30 168
-100 417 -14 47 -34 126 -46 175 -12 50 -33 128 -47 175 -13 47 -39 144 -58
215 -63 243 -115 440 -135 510 -11 39 -27 99 -35 135 -8 36 -33 128 -54 205
-22 77 -51 187 -66 245 -15 58 -42 161 -61 230 -31 114 -62 233 -160 605 -40
155 -76 289 -139 525 -26 96 -59 220 -73 275 -14 55 -50 194 -82 310 -54 201
-57 211 -89 232 -44 30 -97 31 -106 2z"/>
<path d="M9225 4656 c-45 -20 -51 -32 -84 -161 -16 -66 -71 -284 -121 -485
-51 -201 -105 -417 -120 -480 -15 -63 -107 -430 -204 -815 -97 -385 -190 -754
-205 -820 -16 -66 -43 -174 -61 -240 -17 -66 -37 -149 -44 -185 -8 -36 -32
-132 -54 -215 -22 -82 -51 -197 -65 -255 -14 -58 -50 -205 -82 -328 -31 -123
-54 -230 -51 -238 14 -37 78 -28 100 14 7 15 25 72 40 127 14 55 41 159 60
230 19 72 57 218 84 325 66 257 149 572 175 670 61 226 130 487 197 745 27
105 79 303 115 440 86 321 232 886 335 1290 15 61 42 161 59 224 40 143 39
165 -9 168 -19 2 -49 -3 -65 -11z"/>
<path d="M2738 4629 c-23 -13 -23 -48 2 -134 12 -39 70 -264 130 -500 60 -237
118 -466 130 -510 12 -44 35 -134 50 -200 15 -66 44 -183 64 -260 70 -265 138
-531 221 -860 46 -181 97 -382 113 -445 17 -63 51 -196 76 -295 25 -99 73
-288 107 -420 33 -132 70 -278 81 -325 11 -47 34 -134 51 -193 32 -114 47
-134 93 -123 40 10 58 -79 -212 1022 -46 188 -91 375 -99 415 -8 41 -26 115
-39 164 -25 93 -81 318 -186 755 -34 140 -88 363 -120 495 -32 132 -75 308
-94 390 -20 83 -45 184 -56 225 -11 41 -35 143 -55 225 -19 83 -39 168 -45
190 -6 22 -27 109 -48 194 -31 130 -41 157 -62 172 -32 23 -80 31 -102 18z"/>
<path d="M8944 4593 c-50 -10 -60 -36 -139 -378 -42 -181 -91 -395 -110 -475
-19 -80 -48 -206 -65 -280 -17 -74 -37 -162 -45 -195 -8 -33 -33 -139 -54
-235 -57 -251 -125 -548 -171 -745 -22 -93 -44 -192 -49 -220 -6 -27 -24 -108
-41 -180 -17 -71 -40 -172 -50 -223 -11 -51 -28 -127 -39 -170 -10 -42 -26
-108 -34 -147 -20 -87 -82 -358 -102 -445 -126 -548 -125 -540 -71 -540 42 1
77 49 90 125 7 37 39 174 116 490 18 72 40 168 51 215 11 47 39 166 64 265 24
99 62 254 84 345 22 91 60 251 85 355 26 105 76 314 112 465 36 151 83 345
104 430 22 85 51 205 65 265 14 61 48 202 75 315 27 113 68 284 90 380 23 96
62 260 87 364 33 137 43 193 36 205 -10 16 -50 22 -89 14z"/>
<path d="M3036 4555 c-22 -22 -21 -27 18 -200 19 -82 51 -222 71 -310 20 -88
65 -281 100 -430 35 -148 84 -360 110 -470 25 -110 64 -274 85 -365 22 -91 55
-237 74 -325 19 -88 42 -185 50 -215 9 -30 31 -127 51 -215 20 -88 42 -187 50
-220 46 -191 79 -333 101 -435 14 -63 29 -131 34 -150 14 -49 70 -285 79 -334
29 -145 125 -525 137 -543 16 -25 53 -30 72 -11 18 18 15 51 -22 203 -38 161
-54 227 -95 415 -16 74 -41 189 -56 255 -15 66 -35 163 -46 215 -11 52 -49
221 -83 375 -35 154 -82 366 -105 470 -22 105 -52 242 -67 305 -14 63 -46 205
-70 315 -25 110 -51 227 -59 260 -14 58 -68 306 -101 470 -9 44 -27 125 -41
180 -26 110 -68 300 -78 355 -9 51 -53 244 -72 318 -17 68 -33 85 -89 97 -22
4 -36 1 -48 -10z"/>
<path d="M8654 4529 c-50 -14 -65 -40 -89 -161 -41 -202 -103 -499 -140 -673
-20 -93 -45 -219 -56 -280 -11 -60 -31 -159 -45 -220 -25 -109 -94 -437 -199
-955 -29 -146 -68 -330 -85 -410 -17 -80 -42 -203 -55 -274 -14 -71 -29 -145
-35 -165 -13 -50 -37 -163 -65 -311 -14 -69 -34 -165 -45 -215 -11 -49 -31
-151 -45 -225 -14 -74 -32 -160 -40 -191 -25 -97 -15 -135 36 -127 40 6 61 51
90 190 29 140 99 461 149 688 56 250 90 404 126 570 19 91 41 192 49 225 24
102 82 368 125 570 11 55 34 156 50 225 16 69 43 193 60 275 18 83 52 238 75
345 24 107 53 242 65 300 12 58 28 132 36 165 28 119 97 432 110 500 8 39 17
85 20 102 11 57 -19 73 -92 52z"/>
<path d="M3323 4499 c-17 -17 -16 -60 3 -139 8 -36 33 -150 55 -255 22 -104
49 -230 59 -280 11 -49 39 -187 64 -305 25 -118 59 -280 75 -360 17 -80 36
-170 42 -200 10 -51 49 -233 104 -480 13 -58 33 -157 45 -220 12 -63 37 -185
56 -270 18 -85 49 -231 68 -325 19 -93 49 -233 65 -310 17 -77 45 -207 61
-290 17 -82 47 -222 66 -310 20 -88 49 -223 65 -299 16 -80 36 -147 45 -158
34 -37 74 -16 74 40 0 30 -47 278 -105 547 -44 208 -69 338 -209 1060 -14 72
-32 162 -41 200 -9 39 -27 126 -40 195 -29 150 -31 162 -102 510 -30 151 -59
298 -65 325 -78 392 -229 1157 -238 1211 -8 50 -18 78 -33 92 -28 26 -97 39
-114 21z"/>
<path d="M8343 4465 c-24 -10 -34 -23 -41 -52 -14 -56 -78 -396 -107 -568 -14
-82 -46 -251 -70 -375 -24 -124 -49 -259 -55 -300 -6 -41 -22 -129 -35 -195
-23 -117 -55 -289 -130 -700 -20 -110 -49 -265 -65 -345 -16 -80 -31 -165 -35
-190 -3 -25 -10 -65 -15 -90 -14 -68 -79 -413 -96 -510 -8 -47 -28 -155 -44
-240 -16 -85 -43 -234 -60 -330 -18 -96 -36 -190 -40 -207 -10 -41 -3 -71 20
-78 24 -8 67 10 79 33 6 10 33 136 60 278 28 142 55 282 61 309 6 28 26 133
46 235 19 102 39 201 44 220 5 19 18 87 29 150 11 63 36 192 56 285 19 94 46
231 60 305 13 74 37 198 54 275 16 77 39 194 51 260 12 66 34 181 50 255 38
182 74 361 100 500 12 63 28 147 36 185 27 132 122 620 145 747 18 104 20 130
9 143 -15 19 -64 19 -107 0z"/>
<path d="M3615 4446 c-23 -17 -18 -79 24 -296 50 -257 58 -296 106 -550 25
-135 62 -321 80 -415 39 -199 80 -422 95 -517 6 -37 26 -147 46 -245 20 -98
42 -216 49 -263 8 -47 34 -188 59 -315 25 -126 57 -293 71 -370 33 -185 65
-350 121 -635 50 -252 80 -414 93 -497 9 -59 33 -93 67 -93 45 0 47 27 14 202
-17 90 -38 208 -45 263 -8 54 -19 120 -24 145 -5 25 -17 86 -26 135 -9 50 -25
137 -35 195 -28 149 -167 936 -186 1050 -8 52 -22 129 -29 170 -8 41 -21 118
-30 170 -9 52 -23 127 -31 166 -15 70 -86 472 -106 594 -5 36 -30 175 -54 310
-24 135 -61 349 -84 475 -52 300 -53 303 -95 321 -43 17 -56 18 -80 0z"/>
<path d="M8045 4408 c-22 -20 -27 -38 -40 -128 -8 -58 -33 -208 -55 -335 -23
-126 -45 -266 -51 -310 -5 -44 -21 -141 -34 -215 -13 -74 -54 -315 -90 -535
-35 -220 -85 -521 -110 -670 -24 -148 -54 -331 -66 -405 -11 -74 -27 -173 -35
-220 -9 -46 -24 -141 -34 -210 -17 -110 -66 -416 -115 -710 -67 -408 -67 -407
-28 -416 32 -8 54 4 71 39 11 23 118 610 153 837 5 36 16 97 24 135 8 39 17
90 20 115 3 25 17 101 30 170 13 69 26 152 30 185 3 33 11 78 17 99 11 45 11
46 67 376 22 135 50 290 61 345 11 55 26 141 34 190 28 176 87 510 92 524 2 8
22 120 44 250 22 130 51 299 65 376 77 432 88 504 75 520 -20 24 -94 20 -125
-7z"/>
<path d="M3892 4398 c-16 -16 -15 -60 2 -150 19 -98 52 -294 75 -453 11 -71
27 -166 35 -210 13 -71 94 -561 131 -795 8 -47 44 -258 80 -470 37 -212 73
-428 81 -480 18 -117 97 -594 125 -750 11 -63 26 -155 34 -205 8 -49 30 -184
50 -300 20 -116 41 -237 46 -270 11 -67 31 -95 65 -95 50 0 49 23 -20 450 -24
148 -53 339 -81 525 -14 94 -32 208 -40 255 -27 153 -94 573 -105 665 -7 50
-16 109 -21 133 -5 23 -25 151 -45 285 -19 133 -41 274 -49 312 -8 39 -19 113
-25 165 -5 52 -17 136 -25 185 -24 132 -53 319 -65 410 -6 44 -13 87 -15 95
-6 21 -63 383 -81 515 -18 132 -30 172 -54 185 -26 14 -83 13 -98 -2z"/>
<path d="M7785 4380 c-36 -14 -43 -32 -59 -155 -9 -66 -23 -158 -31 -205 -7
-47 -19 -128 -25 -180 -6 -52 -20 -153 -31 -225 -11 -71 -26 -173 -34 -225 -8
-52 -25 -169 -39 -260 -14 -91 -30 -216 -36 -279 -6 -63 -13 -118 -16 -122 -5
-9 -63 -400 -95 -644 -10 -82 -28 -208 -39 -280 -17 -119 -47 -330 -100 -715
-11 -80 -40 -287 -65 -461 -52 -364 -54 -395 -25 -404 27 -9 58 2 70 24 14 27
29 102 44 216 8 55 32 219 55 365 23 146 49 308 57 360 8 52 25 163 38 245 14
83 27 175 31 205 3 30 15 107 25 170 11 63 26 160 34 215 18 129 110 733 137
895 11 69 31 202 44 295 13 94 31 211 39 260 9 50 25 153 36 230 11 77 23 147
25 155 8 26 43 270 56 387 10 91 10 115 -1 127 -13 17 -62 20 -95 6z"/>
<path d="M4159 4349 c-8 -15 -8 -38 0 -83 18 -104 104 -694 191 -1311 17 -115
39 -262 49 -325 11 -63 22 -149 26 -190 3 -41 13 -111 20 -155 8 -44 30 -192
50 -330 20 -137 40 -275 45 -305 5 -30 21 -136 35 -235 14 -99 39 -270 55
-380 16 -110 41 -281 55 -380 14 -99 32 -221 40 -271 8 -50 15 -105 15 -122 0
-40 41 -75 73 -63 38 14 37 25 -23 461 -11 74 -33 241 -50 370 -17 129 -37
276 -45 325 -8 50 -17 119 -20 155 -3 36 -17 144 -31 240 -73 519 -168 1220
-185 1365 -5 50 -23 185 -39 300 -17 116 -36 257 -44 315 -9 58 -20 148 -26
200 -49 421 -55 440 -136 440 -34 0 -46 -5 -55 -21z"/>
<path d="M7523 4350 c-47 -11 -61 -26 -67 -73 -3 -23 -17 -141 -31 -262 -15
-121 -32 -265 -40 -320 -8 -55 -17 -140 -20 -190 -3 -49 -19 -187 -35 -305
-16 -118 -36 -276 -45 -350 -9 -74 -21 -166 -26 -205 -6 -38 -14 -119 -20
-180 -5 -60 -20 -191 -33 -290 -14 -99 -27 -205 -30 -235 -3 -30 -17 -154 -32
-275 -14 -121 -29 -254 -34 -295 -5 -41 -14 -118 -20 -170 -6 -52 -19 -162
-30 -245 -47 -369 -82 -705 -76 -729 5 -20 12 -26 35 -26 60 0 63 14 115 425
24 184 35 267 51 370 8 50 19 140 25 200 6 61 15 133 20 160 5 28 16 104 25
170 8 66 22 163 30 215 7 52 16 129 20 170 3 41 19 167 34 280 29 206 46 336
76 575 21 168 66 505 110 820 19 138 39 302 45 365 6 63 20 173 32 244 l22
129 -23 18 c-25 20 -29 21 -78 9z"/>
<path d="M4442 4328 c-16 -16 -15 -70 2 -182 22 -140 45 -316 61 -481 9 -82
22 -197 30 -255 8 -58 19 -148 25 -200 35 -300 51 -436 65 -530 8 -58 37 -289
65 -515 27 -225 56 -464 65 -530 41 -318 85 -674 100 -805 9 -80 30 -250 46
-378 16 -128 29 -235 29 -237 0 -12 35 -35 54 -35 50 0 52 16 28 218 -44 362
-84 723 -113 997 -5 55 -12 107 -14 115 -2 8 -16 127 -30 264 -14 136 -27 252
-30 257 -3 4 -15 104 -25 221 -11 117 -22 227 -25 243 -3 17 -19 158 -35 315
-17 157 -36 337 -44 400 -15 118 -27 223 -72 625 -55 503 -50 467 -74 487 -25
20 -90 24 -108 6z"/>
<path d="M7233 4319 c-18 -5 -37 -18 -42 -27 -9 -17 -26 -162 -51 -447 -6 -66
-20 -208 -31 -315 -11 -107 -31 -316 -45 -465 -13 -148 -29 -304 -34 -345 -6
-41 -17 -154 -25 -250 -8 -96 -22 -233 -30 -305 -8 -71 -19 -184 -25 -250 -12
-149 -66 -709 -80 -830 -5 -49 -19 -193 -30 -320 -11 -126 -22 -239 -25 -250
-2 -11 -9 -84 -15 -163 -12 -154 -9 -172 34 -172 39 0 56 22 66 85 9 56 29
235 65 580 9 83 22 204 30 270 8 66 20 179 26 250 5 72 17 180 25 240 7 61 19
151 24 200 6 50 17 144 25 210 8 66 19 174 25 240 6 66 17 179 26 250 28 238
53 472 64 587 9 101 29 284 75 678 8 69 24 214 37 324 l22 198 -23 19 c-25 21
-39 22 -88 8z"/>
<path d="M4734 4310 c-40 -16 -42 26 36 -735 11 -110 24 -234 29 -275 6 -41
13 -109 16 -150 4 -41 13 -140 21 -220 8 -80 21 -212 29 -295 8 -82 24 -235
35 -340 11 -104 23 -212 25 -240 3 -27 16 -158 30 -290 23 -227 37 -368 70
-720 8 -82 21 -208 30 -280 13 -113 25 -229 51 -495 3 -36 13 -75 20 -88 16
-24 53 -29 72 -10 16 16 15 115 -3 268 -8 68 -22 206 -30 305 -8 99 -21 245
-30 325 -17 165 -48 501 -70 765 -9 99 -18 194 -20 210 -3 17 -12 118 -20 225
-8 107 -24 281 -35 385 -11 105 -25 249 -30 320 -15 190 -40 468 -45 485 -2 8
-11 103 -20 210 -22 291 -45 551 -51 587 -7 44 -64 71 -110 53z"/>
<path d="M5002 4290 c-12 -5 -25 -16 -28 -25 -6 -14 17 -344 36 -535 6 -52 17
-185 25 -295 40 -560 56 -764 70 -915 9 -91 22 -257 30 -370 8 -113 22 -284
30 -380 27 -308 45 -523 50 -595 2 -38 14 -176 25 -305 12 -129 29 -337 39
-462 18 -236 24 -258 66 -258 55 0 55 22 16 550 -11 146 -22 319 -26 385 -3
66 -12 199 -20 295 -8 96 -19 247 -25 335 -10 159 -26 380 -56 775 -22 293
-33 460 -44 663 -5 97 -16 259 -24 360 -9 100 -23 301 -31 447 -9 146 -18 275
-21 288 -3 15 -17 29 -39 38 -39 16 -42 16 -73 4z"/>
<path d="M6930 4282 c-25 -20 -27 -33 -55 -412 -8 -118 -20 -264 -25 -325 -6
-60 -15 -186 -20 -280 -6 -93 -17 -251 -26 -350 -17 -210 -49 -615 -64 -830
-11 -152 -28 -383 -55 -735 -8 -107 -29 -384 -45 -615 -17 -231 -33 -448 -36
-481 -6 -66 8 -94 47 -94 24 0 59 34 59 57 1 10 9 108 20 218 11 110 24 259
30 330 17 208 40 477 55 650 8 88 24 275 35 415 12 140 23 262 25 270 4 15 27
291 45 545 12 172 32 388 80 856 6 58 15 162 20 230 5 68 16 215 25 326 19
236 18 243 -49 243 -27 0 -52 -7 -66 -18z"/>
<path d="M5256 4264 c-19 -18 -20 -57 -6 -261 13 -189 48 -784 60 -1018 5 -99
14 -254 20 -345 18 -286 40 -658 50 -845 16 -296 39 -681 50 -835 5 -80 17
-289 26 -465 16 -316 17 -320 41 -342 29 -28 34 -28 64 -4 17 13 23 28 22 52
-1 19 -6 156 -12 304 -5 149 -17 378 -25 510 -9 132 -23 413 -31 625 -9 212
-20 446 -26 520 -5 74 -14 265 -19 424 -6 159 -14 350 -20 425 -5 75 -12 228
-15 341 -5 192 -16 428 -35 754 -7 128 -10 141 -30 158 -28 22 -93 24 -114 2z"/>
<path d="M6645 4257 c-10 -16 -17 -75 -25 -212 -6 -105 -19 -336 -30 -515 -21
-355 -36 -657 -45 -875 -3 -77 -12 -243 -20 -370 -17 -280 -41 -723 -55 -1020
-6 -121 -17 -321 -25 -445 -24 -386 -30 -637 -15 -655 16 -19 54 -19 74 0 18
18 23 58 41 360 8 132 20 301 25 375 6 74 19 286 30 470 11 184 25 389 30 455
5 66 19 275 30 465 12 190 30 469 41 620 20 279 37 557 64 1000 8 135 17 262
20 284 9 61 -13 86 -75 86 -41 0 -52 -4 -65 -23z"/>
<path d="M5535 4250 c-17 -19 -17 -38 -6 -382 7 -200 16 -469 21 -598 5 -129
14 -381 20 -560 6 -179 17 -478 25 -665 8 -187 19 -486 25 -665 6 -179 15
-428 20 -555 5 -126 12 -327 16 -445 5 -172 10 -219 22 -232 20 -24 55 -23 77
2 17 19 18 38 11 298 -3 152 -11 486 -16 742 -11 537 -26 1159 -40 1680 -6
201 -15 583 -21 849 -6 266 -14 494 -19 507 -18 46 -101 61 -135 24z"/>
<path d="M5834 4261 c-12 -5 -26 -16 -30 -23 -10 -15 -7 -462 6 -1173 5 -275
14 -927 20 -1450 14 -1272 18 -1452 37 -1470 20 -20 56 -19 76 3 14 16 15 199
12 2052 -4 1674 -7 2036 -18 2047 -17 18 -76 25 -103 14z"/>
<path d="M6113 4260 c-12 -5 -26 -17 -32 -28 -14 -26 -51 -4013 -37 -4065 12
-51 79 -46 94 6 11 36 28 712 57 2267 3 157 10 416 15 575 5 160 12 500 15
757 l7 467 -31 15 c-33 18 -55 19 -88 6z"/>
<path d="M6366 4251 c-16 -17 -18 -61 -26 -418 -5 -220 -12 -460 -15 -534 -12
-263 -25 -640 -35 -1054 -6 -231 -15 -532 -21 -670 -9 -233 -20 -592 -36
-1170 -5 -212 -4 -242 10 -253 24 -20 70 -11 83 16 6 13 14 103 18 205 4 100
13 321 21 492 8 171 19 432 25 580 6 149 13 288 15 310 3 22 10 189 15 370 6
182 14 402 20 490 11 186 27 540 40 945 5 157 15 372 21 478 11 180 10 194 -6
212 -25 27 -105 28 -129 1z"/>
</g>
</svg>
